<?xml version="1.0" encoding="utf-8"?>
<!-- Generator: Adobe Illustrator 19.2.1, SVG Export Plug-In . SVG Version: 6.00 Build 0)  -->
<svg version="1.1" id="Layer_1" xmlns="http://www.w3.org/2000/svg" xmlns:xlink="http://www.w3.org/1999/xlink" x="0px" y="0px"
	 viewBox="0 0 32 32" style="enable-background:new 0 0 32 32;" xml:space="preserve">
<style type="text/css">
	.st0{fill:#18A6DF;}
</style>
<path class="st0" d="M16,2c7.7,0,14,6.3,14,14s-6.3,14-14,14C8.3,30,2,23.7,2,16S8.3,2,16,2 M16,0C7.2,0,0,7.2,0,16s7.2,16,16,16
	c8.8,0,16-7.2,16-16S24.8,0,16,0L16,0z"/>
<g>
	<path class="st0" d="M18.8,9.8c-0.7-0.6-1.6-0.9-2.8-0.9c-1.3,0-2.5,0.3-3.7,0.9l0.6,1.3c0.6-0.3,1.1-0.5,1.6-0.6
		c0.5-0.1,1-0.2,1.4-0.2c0.8,0,1.4,0.2,1.8,0.5s0.6,0.8,0.6,1.5c0,0.5-0.1,1-0.3,1.3c-0.2,0.4-0.8,0.9-1.6,1.6c-0.6,0.5-1,1-1.3,1.5
		c-0.2,0.5-0.3,1.1-0.3,1.8V19h1.2v-0.3c0-0.6,0.1-1.1,0.3-1.4s0.6-0.8,1.3-1.3c0.8-0.7,1.3-1.2,1.5-1.5s0.4-0.6,0.5-1
		c0.1-0.3,0.2-0.8,0.2-1.2C19.8,11.2,19.4,10.4,18.8,9.8z"/>
	<path class="st0" d="M15.4,20.6c-0.8,0-1.1,0.4-1.1,1.3c0,0.5,0.1,0.8,0.3,1c0.2,0.2,0.5,0.3,0.8,0.3c0.4,0,0.6-0.1,0.8-0.3
		c0.2-0.2,0.3-0.5,0.3-0.9c0-0.4-0.1-0.7-0.3-1C16,20.7,15.7,20.6,15.4,20.6z"/>
</g>
</svg>
