<?xml version="1.0" encoding="utf-8"?>
<!-- Generator: Adobe Illustrator 19.2.1, SVG Export Plug-In . SVG Version: 6.00 Build 0)  -->
<svg version="1.1" id="Layer_1" xmlns="http://www.w3.org/2000/svg" xmlns:xlink="http://www.w3.org/1999/xlink" x="0px" y="0px"
	 viewBox="0 0 30 30" style="enable-background:new 0 0 30 30;" xml:space="preserve">
<style type="text/css">
	.st0{fill-rule:evenodd;clip-rule:evenodd;fill:#18A6DF;}
</style>
<path class="st0" d="M14.4,17L13,15.6L28.6,0L30,1.4L14.4,17z M2,7v20c0,0.6,0.4,1,1,1h20c0.6,0,1-0.4,1-1V12h2v16c0,1.1-0.9,2-2,2
	H2c-1.1,0-2-0.9-2-2V6c0-1.1,0.9-2,2-2h16v2H3C2.4,6,2,6.4,2,7z"/>
</svg>
