<?xml version="1.0" encoding="utf-8"?>
<!-- Generator: Adobe Illustrator 19.2.1, SVG Export Plug-In . SVG Version: 6.00 Build 0)  -->
<svg version="1.1" id="Layer_1" xmlns="http://www.w3.org/2000/svg" xmlns:xlink="http://www.w3.org/1999/xlink" x="0px" y="0px"
	 viewBox="0 0 24 30" style="enable-background:new 0 0 24 30;" xml:space="preserve">
<style type="text/css">
	.st0{fill-rule:evenodd;clip-rule:evenodd;fill:#18A6DF;}
</style>
<path class="st0" d="M22,28c0-5.5-4.5-10-10-10C6.5,18,2,22.5,2,28v2H0v-2c0-5.1,3.2-9.4,7.6-11.2C4.9,15.3,3,12.4,3,9c0-5,4-9,9-9
	c5,0,9,4,9,9c0,3.4-1.9,6.3-4.6,7.8C20.8,18.6,24,22.9,24,28v2h-2V28z M19,9c0-3.9-3.1-7-7-7C8.1,2,5,5.1,5,9c0,3.9,3.1,7,7,7
	C15.9,16,19,12.9,19,9z"/>
</svg>
