<?xml version="1.0" encoding="utf-8"?>
<!-- Generator: Adobe Illustrator 19.2.1, SVG Export Plug-In . SVG Version: 6.00 Build 0)  -->
<svg version="1.1" id="Layer_1" xmlns="http://www.w3.org/2000/svg" xmlns:xlink="http://www.w3.org/1999/xlink" x="0px" y="0px"
	 viewBox="0 0 26 32" style="enable-background:new 0 0 26 32;" xml:space="preserve">
<style type="text/css">
	.st0{fill-rule:evenodd;clip-rule:evenodd;fill:#18A6DF;}
</style>
<path class="st0" d="M22,32H4c-2.2,0-4-1.8-4-4V16c0-2.2,1.8-4,4-4h0V9c0-5,4-9,9-9c5,0,9,4,9,9v3c2.2,0,4,1.8,4,4v12
	C26,30.2,24.2,32,22,32z M20,9c0-3.9-3.1-7-7-7C9.1,2,6,5.1,6,9v3h14V9z M24,16c0-1.1-0.9-2-2-2H4c-1.1,0-2,0.9-2,2v12
	c0,1.1,0.9,2,2,2h18c1.1,0,2-0.9,2-2V16z M13,26c-0.6,0-1-0.4-1-1v-6c0-0.6,0.4-1,1-1c0.6,0,1,0.4,1,1v6C14,25.5,13.6,26,13,26z"/>
</svg>
