<?xml version="1.0" encoding="utf-8"?>
<!-- Generator: Adobe Illustrator 19.2.1, SVG Export Plug-In . SVG Version: 6.00 Build 0)  -->
<svg version="1.1" id="Layer_1" xmlns="http://www.w3.org/2000/svg" xmlns:xlink="http://www.w3.org/1999/xlink" x="0px" y="0px"
	 viewBox="0 0 28 28" style="enable-background:new 0 0 28 28;" xml:space="preserve">
<style type="text/css">
	.st0{fill-rule:evenodd;clip-rule:evenodd;fill:#18A6DF;}
</style>
<path class="st0" d="M13.7,25.7c-3.2,3.1-8.2,3.1-11.4,0c-3.1-3.1-3.1-8.1,0-11.2l0,0l10-9.9l1.4-1.4l1.4-1.4c2.4-2.3,6.2-2.3,8.6,0
	c2.4,2.3,2.4,6.1,0,8.5l-1.4,1.4L20.9,13l-5,4.9l-1.8,1.8l-3.2,3.1l0,0c-1.6,1.5-4.1,1.5-5.7,0c-1.6-1.5-1.6-4,0-5.6l0,0l1.4-1.4
	l1.8-1.7l1.8-1.8l2.2-2.1L14,8.6L15.6,7l1-1L18,7.4l-1.4,1.4l-1.5,1.5l-3,3l-1.5,1.5l-1.5,1.5L8,17.3l-1.4,1.4c-0.8,0.8-0.8,2,0,2.8
	c0.8,0.8,2.1,0.8,2.9,0L12,19l1.5-1.5L15,16l1.6-1.6l2.5-2.5l0.3-0.3l1.4-1.4l1.4-1.4l0,0c0,0,0,0,0,0c1.6-1.6,1.6-4.1,0-5.6
	c-1.6-1.6-4.1-1.6-5.7,0c0,0,0,0,0,0l0,0l-1.4,1.4L13.7,6l-0.3,0.3l-2.5,2.5l-3.3,3.3l-3.8,3.8c-2.4,2.3-2.4,6.1,0,8.5
	c2.4,2.3,6.2,2.3,8.6,0l3.8-3.8l9-8.9l1.4-1.4l1.4,1.4L26.6,13L13.7,25.7L13.7,25.7z"/>
</svg>
