<?xml version="1.0" encoding="utf-8"?>
<!-- Generator: Adobe Illustrator 19.2.1, SVG Export Plug-In . SVG Version: 6.00 Build 0)  -->
<svg version="1.1" id="Layer_1" xmlns="http://www.w3.org/2000/svg" xmlns:xlink="http://www.w3.org/1999/xlink" x="0px" y="0px"
	 viewBox="0 0 32 30" style="enable-background:new 0 0 32 30;" xml:space="preserve">
<style type="text/css">
	.st0{fill-rule:evenodd;clip-rule:evenodd;fill:#18A6DF;}
</style>
<path class="st0" d="M29,26h-9l-4,4l-4-4H3c-1.7,0-3-1.3-3-3V3c0-1.7,1.3-3,3-3h26c1.7,0,3,1.3,3,3v20C32,24.7,30.7,26,29,26z M30,3
	c0-0.6-0.4-1-1-1H3C2.4,2,2,2.4,2,3v20c0,0.6,0.4,1,1,1h10l3,3l3-3h10c0.6,0,1-0.4,1-1V3z M25,10H7c-0.6,0-1-0.4-1-1
	c0-0.6,0.4-1,1-1h18c0.6,0,1,0.4,1,1C26,9.6,25.6,10,25,10z M11,14h10c0.6,0,1,0.4,1,1c0,0.6-0.4,1-1,1H11c-0.6,0-1-0.4-1-1
	C10,14.4,10.4,14,11,14z"/>
</svg>
