<?xml version="1.0" encoding="utf-8"?>
<!-- Generator: Adobe Illustrator 19.2.1, SVG Export Plug-In . SVG Version: 6.00 Build 0)  -->
<svg version="1.1" id="icons" xmlns="http://www.w3.org/2000/svg" xmlns:xlink="http://www.w3.org/1999/xlink" x="0px" y="0px"
	 viewBox="0 0 23 30" style="enable-background:new 0 0 23 30;" xml:space="preserve">
<style type="text/css">
	.st0{fill:#02A7E4;}
</style>
<g>
	<path class="st0" d="M23,8.3c0-0.1-0.1-0.1-0.1-0.2l-8-8c0,0-0.1-0.1-0.2-0.1c-0.1,0-0.1,0-0.2,0h-14C0.2,0,0,0.2,0,0.5v29
		C0,29.8,0.2,30,0.5,30h22c0.3,0,0.5-0.2,0.5-0.5v-21C23,8.4,23,8.4,23,8.3z M15,1.7L21.3,8H15V1.7z M1,29V1h13v7.5
		C14,8.8,14.2,9,14.5,9H22v20H1z"/>
	<path class="st0" d="M17.5,12h-5c-0.3,0-0.5,0.2-0.5,0.5s0.2,0.5,0.5,0.5h5c0.3,0,0.5-0.2,0.5-0.5S17.7,12,17.5,12z"/>
	<path class="st0" d="M17.5,17h-5c-0.3,0-0.5,0.2-0.5,0.5s0.2,0.5,0.5,0.5h5c0.3,0,0.5-0.2,0.5-0.5S17.7,17,17.5,17z"/>
	<path class="st0" d="M17.5,23h-5c-0.3,0-0.5,0.2-0.5,0.5s0.2,0.5,0.5,0.5h5c0.3,0,0.5-0.2,0.5-0.5S17.7,23,17.5,23z"/>
	<path class="st0" d="M9.5,9.6l-2.8,2.8l-1.5-1.5c-0.2-0.2-0.5-0.2-0.7,0s-0.2,0.5,0,0.7l1.9,1.9c0.1,0.1,0.2,0.1,0.4,0.1
		s0.3,0,0.4-0.1l3.2-3.2c0.2-0.2,0.2-0.5,0-0.7S9.7,9.4,9.5,9.6z"/>
	<path class="st0" d="M9.5,15.3l-2.8,2.8l-1.5-1.5c-0.2-0.2-0.5-0.2-0.7,0s-0.2,0.5,0,0.7l1.9,1.9c0.1,0.1,0.2,0.1,0.4,0.1
		s0.3,0,0.4-0.1l3.2-3.2c0.2-0.2,0.2-0.5,0-0.7S9.7,15.1,9.5,15.3z"/>
	<path class="st0" d="M9.5,20.9l-2.8,2.8l-1.5-1.5C5,22,4.7,22,4.5,22.2s-0.2,0.5,0,0.7l1.9,1.9C6.5,24.9,6.6,25,6.7,25
		s0.3,0,0.4-0.1l3.2-3.2c0.2-0.2,0.2-0.5,0-0.7S9.7,20.8,9.5,20.9z"/>
</g>
</svg>
