<?xml version="1.0" encoding="utf-8"?>
<!-- Generator: Adobe Illustrator 19.2.1, SVG Export Plug-In . SVG Version: 6.00 Build 0)  -->
<svg version="1.1" id="Layer_1" xmlns="http://www.w3.org/2000/svg" xmlns:xlink="http://www.w3.org/1999/xlink" x="0px" y="0px"
	 viewBox="0 0 32 26" style="enable-background:new 0 0 32 26;" xml:space="preserve">
<style type="text/css">
	.st0{fill-rule:evenodd;clip-rule:evenodd;fill:#18A6DF;}
</style>
<path class="st0" d="M30,26H2c-1.1,0-2-0.9-2-2V2c0-1.1,0.9-2,2-2h28c1.1,0,2,0.9,2,2v22C32,25.1,31.1,26,30,26z M30,3
	c0-0.6-0.4-1-1-1H3C2.4,2,2,2.4,2,3v20c0,0.6,0.4,1,1,1h26c0.6,0,1-0.4,1-1V3z M20,4h8v8h-8V4z M22,10h4V6h-4V10z M4,18h14v2H4V18z
	 M4,14h14v2H4V14z"/>
</svg>
