<?xml version="1.0" encoding="utf-8"?>
<!-- Generator: Adobe Illustrator 19.2.1, SVG Export Plug-In . SVG Version: 6.00 Build 0)  -->
<svg version="1.1" id="icons" xmlns="http://www.w3.org/2000/svg" xmlns:xlink="http://www.w3.org/1999/xlink" x="0px" y="0px"
	 viewBox="0 0 30 28" style="enable-background:new 0 0 30 28;" xml:space="preserve">
<style type="text/css">
	.st0{fill:#02A7E4;}
</style>
<g>
	<g>
		<path class="st0" d="M1.5,28c-0.1,0-0.3-0.1-0.4-0.1C1,27.7,1,27.5,1.1,27.3l3.2-6.4C1.5,18.6,0,15.6,0,12.3C0,5.5,6.7,0,15,0
			s15,5.5,15,12.3c0,6.8-6.7,12.3-15,12.3c-1.7,0-3.4-0.2-5-0.7l-8.2,4C1.6,28,1.6,28,1.5,28z M15,1C7.3,1,1,6.1,1,12.3
			c0,3,1.5,5.9,4.2,8.1c0.2,0.1,0.2,0.4,0.1,0.6l-2.7,5.4L9.7,23c0.1-0.1,0.2-0.1,0.4,0c1.6,0.5,3.2,0.7,4.9,0.7
			c7.7,0,14-5.1,14-11.3C29,6.1,22.7,1,15,1z"/>
	</g>
	<g>
		<path class="st0" d="M15.5,19c-0.6,0-1-0.4-1-1s0.4-1,1-1s1,0.4,1,1S16.1,19,15.5,19z M15.5,18C15.5,18,15.5,18,15.5,18l0.5,0
			L15.5,18z"/>
	</g>
	<g>
		<path class="st0" d="M15.5,16c-0.3,0-0.5-0.2-0.5-0.5v-2c0-0.3,0.2-0.5,0.5-0.5c1.9,0,3.4-1.3,3.4-3c0-1.8-1.5-3.2-3.3-3.2
			c-1.8,0-3.3,1.5-3.3,3.4c0,0.3-0.2,0.5-0.5,0.5s-0.5-0.2-0.5-0.5c0-2.4,1.9-4.4,4.3-4.4s4.3,1.9,4.3,4.2c0,2.1-1.7,3.8-3.9,4v1.5
			C16,15.8,15.8,16,15.5,16z"/>
	</g>
</g>
</svg>
