<?xml version="1.0" encoding="utf-8"?>
<!-- Generator: Adobe Illustrator 19.2.1, SVG Export Plug-In . SVG Version: 6.00 Build 0)  -->
<svg version="1.1" id="icons" xmlns="http://www.w3.org/2000/svg" xmlns:xlink="http://www.w3.org/1999/xlink" x="0px" y="0px"
	 viewBox="0 0 30 25" style="enable-background:new 0 0 30 25;" xml:space="preserve">
<style type="text/css">
	.st0{fill:#02A7E4;}
</style>
<g>
	<g>
		<path class="st0" d="M8.5,25c-0.1,0-0.1,0-0.2,0C8.1,24.9,8,24.7,8,24.5V20H0.5C0.2,20,0,19.8,0,19.5v-19C0,0.2,0.2,0,0.5,0h29
			C29.8,0,30,0.2,30,0.5v19c0,0.3-0.2,0.5-0.5,0.5H14.6l-5.7,4.9C8.7,25,8.6,25,8.5,25z M1,19h7.5C8.8,19,9,19.2,9,19.5v3.9l5-4.3
			c0.1-0.1,0.2-0.1,0.3-0.1H29V1H1V19z"/>
	</g>
	<g>
		<path class="st0" d="M18.2,6H6.8C6.5,6,6.3,5.8,6.3,5.5S6.5,5,6.8,5h11.3c0.3,0,0.5,0.2,0.5,0.5S18.4,6,18.2,6z"/>
	</g>
	<g>
		<path class="st0" d="M23.2,10.1H6.8c-0.3,0-0.5-0.2-0.5-0.5s0.2-0.5,0.5-0.5h16.4c0.3,0,0.5,0.2,0.5,0.5S23.5,10.1,23.2,10.1z"/>
	</g>
	<g>
		<path class="st0" d="M23.2,14H6.8c-0.3,0-0.5-0.2-0.5-0.5S6.5,13,6.8,13h16.4c0.3,0,0.5,0.2,0.5,0.5S23.5,14,23.2,14z"/>
	</g>
</g>
</svg>
