<?xml version="1.0" encoding="utf-8"?>
<!-- Generator: Adobe Illustrator 19.2.1, SVG Export Plug-In . SVG Version: 6.00 Build 0)  -->
<svg version="1.1" id="Layer_1" xmlns="http://www.w3.org/2000/svg" xmlns:xlink="http://www.w3.org/1999/xlink" x="0px" y="0px"
	 viewBox="0 0 89.3 23.8" style="enable-background:new 0 0 89.3 23.8;" xml:space="preserve">
<style type="text/css">
	.st0{fill:#009CDE;}
	.st1{fill:#003087;}
</style>
<g>
	<g>
		<path class="st0" d="M61.1,6.5C60.7,9,58.8,9,57,9h-1l0.7-4.7c0-0.3,0.3-0.5,0.6-0.5h0.5c1.3,0,2.4,0,3.1,0.7
			C61.1,5,61.2,5.6,61.1,6.5L61.1,6.5z M60.3,0h-6.9c-0.5,0-0.9,0.3-1,0.8l-2.8,17.8c-0.1,0.4,0.2,0.7,0.6,0.7h3.6
			c0.3,0,0.6-0.2,0.7-0.6l0.8-5.1c0.1-0.5,0.5-0.8,1-0.8h2.2c4.6,0,7.2-2.2,7.9-6.6c0.3-1.9,0-3.4-0.9-4.5C64.4,0.6,62.6,0,60.3,0
			L60.3,0z"/>
		<path class="st1" d="M11.5,6.5C11.1,9,9.2,9,7.4,9h-1l0.7-4.7c0-0.3,0.3-0.5,0.6-0.5h0.5c1.3,0,2.4,0,3.1,0.7
			C11.6,5,11.7,5.6,11.5,6.5L11.5,6.5z M10.7,0H3.8c-0.5,0-0.9,0.3-1,0.8L0,18.6C0,19,0.2,19.3,0.6,19.3h3.3c0.5,0,0.9-0.3,1-0.8
			l0.8-4.8c0.1-0.5,0.5-0.8,1-0.8h2.2c4.6,0,7.2-2.2,7.9-6.6c0.3-1.9,0-3.4-0.9-4.5C14.8,0.6,13,0,10.7,0L10.7,0z"/>
	</g>
	<path class="st1" d="M26.9,12.9c-0.3,1.9-1.8,3.2-3.8,3.2c-1,0-1.7-0.3-2.2-0.9c-0.5-0.6-0.7-1.4-0.5-2.3c0.3-1.9,1.8-3.2,3.7-3.2
		c0.9,0,1.7,0.3,2.2,0.9C26.8,11.1,27,12,26.9,12.9L26.9,12.9z M31.5,6.4h-3.3c-0.3,0-0.5,0.2-0.6,0.5l-0.1,0.9l-0.2-0.3
		c-0.7-1-2.3-1.4-3.9-1.4c-3.7,0-6.8,2.8-7.4,6.7c-0.3,1.9,0.1,3.8,1.2,5.1c1,1.2,2.5,1.7,4.2,1.7c3,0,4.6-1.9,4.6-1.9l-0.1,0.9
		c-0.1,0.4,0.2,0.7,0.6,0.7h3c0.5,0,0.9-0.3,1-0.8l1.8-11.4C32.1,6.7,31.8,6.4,31.5,6.4L31.5,6.4z"/>
	<path class="st0" d="M76.4,12.9c-0.3,1.9-1.8,3.2-3.8,3.2c-1,0-1.7-0.3-2.2-0.9c-0.5-0.6-0.7-1.4-0.5-2.3c0.3-1.9,1.8-3.2,3.7-3.2
		c0.9,0,1.7,0.3,2.2,0.9C76.4,11.1,76.6,12,76.4,12.9L76.4,12.9z M81.1,6.4h-3.3c-0.3,0-0.5,0.2-0.6,0.5L77,7.8l-0.2-0.3
		c-0.7-1-2.3-1.4-3.9-1.4c-3.7,0-6.8,2.8-7.4,6.7c-0.3,1.9,0.1,3.8,1.2,5.1c1,1.2,2.5,1.7,4.2,1.7c3,0,4.6-1.9,4.6-1.9l-0.1,0.9
		c-0.1,0.4,0.2,0.7,0.6,0.7h3c0.5,0,0.9-0.3,1-0.8l1.8-11.4C81.7,6.7,81.4,6.4,81.1,6.4L81.1,6.4z"/>
	<g>
		<path class="st1" d="M49.2,6.4h-3.3c-0.3,0-0.6,0.2-0.8,0.4l-4.6,6.8l-2-6.5c-0.1-0.4-0.5-0.7-0.9-0.7h-3.3
			c-0.4,0-0.7,0.4-0.5,0.8L37.4,18L34,22.9c-0.3,0.4,0,0.9,0.5,0.9h3.3c0.3,0,0.6-0.2,0.8-0.4L49.7,7.3C50,7,49.7,6.4,49.2,6.4
			L49.2,6.4z"/>
		<path class="st0" d="M85,0.5l-2.9,18.1c-0.1,0.4,0.2,0.7,0.6,0.7h2.9c0.5,0,0.9-0.3,1-0.8l2.8-17.8C89.4,0.3,89.1,0,88.8,0h-3.2
			C85.3,0,85,0.2,85,0.5L85,0.5z"/>
	</g>
</g>
</svg>
